<svg width="83" height="77" viewBox="0 0 83 77" fill="none" xmlns="http://www.w3.org/2000/svg">
<path d="M46.8832 60.6562H31.4362C27.8873 60.6562 25 57.9576 25 54.6406V39H53.3194V54.6406C53.3194 57.9576 50.4321 60.6562 46.8832 60.6562Z" fill="#FCE061"/>
<path d="M55.6319 42.1094H27.3125V44.5156H55.6319V42.1094Z" fill="black"/>
<path d="M47.9085 22.8594H45.334V25.2656H47.9085V22.8594Z" fill="black"/>
<path d="M37.6116 22.8594H35.0371V25.2656H37.6116V22.8594Z" fill="black"/>
<path d="M74.9477 71.515C72.825 69.2639 73.43 64.8003 74.1303 59.6317C74.5294 56.6937 74.9413 53.6558 74.9413 50.5312C74.9413 39.098 65.2084 37.5411 62.6687 37.3294C58.1376 32.9392 55.6326 27.1894 55.6326 21.0727V15.6406H53.0581V7.21875C53.0581 3.90173 50.1708 1.20312 46.6219 1.20312H36.3239C32.775 1.20312 29.8877 3.90173 29.8877 7.21875V15.6406H27.3132V21.0727C27.3132 27.1894 24.8083 32.9392 20.2772 37.3306C17.7374 37.5411 8.00458 39.098 8.00458 50.5312C8.00458 53.6558 8.4165 56.6937 8.81426 59.6317C9.51452 64.8003 10.1195 69.2639 7.99686 71.515C6.80744 72.777 4.70537 73.3906 1.56836 73.3906V75.7969C5.48673 75.7969 8.22212 74.9174 9.92901 73.1067C12.8202 70.0399 12.1482 65.077 11.3681 59.3297C10.9807 56.4663 10.5791 53.5042 10.5791 50.5312C10.5791 42.06 16.8209 40.2205 19.5898 39.8198V69.7812C19.5898 73.0983 22.4771 75.7969 26.026 75.7969H56.9199C60.4688 75.7969 63.3561 73.0983 63.3561 69.7812V39.8126C66.1224 40.2 72.3668 42.0107 72.3668 50.5312C72.3668 53.5042 71.9652 56.4663 71.5777 59.3297C70.7989 65.077 70.1257 70.0399 73.0168 73.1067C74.7237 74.9174 77.4591 75.7969 81.3775 75.7969V73.3906C78.2405 73.3906 76.1384 72.777 74.9477 71.515ZM50.4836 7.21875V15.6406H47.9091V7.21875C47.9091 5.85922 47.4058 4.61759 46.5884 3.60938H46.6219C48.751 3.60938 50.4836 5.22878 50.4836 7.21875ZM41.4729 3.60938C43.1489 3.60938 44.5649 4.6188 45.0978 6.01562H37.8493C38.381 4.6188 39.7969 3.60938 41.4729 3.60938ZM37.6112 8.42188H45.3347V15.6406H37.6112V8.42188ZM32.4622 7.21875C32.4622 5.22878 34.1948 3.60938 36.3239 3.60938H36.3574C35.54 4.61759 35.0367 5.85922 35.0367 7.21875V15.6406H32.4622V7.21875ZM56.9199 70.9844C58.3744 70.9844 59.7029 70.514 60.7816 69.75V69.7812C60.7816 71.7712 59.049 73.3906 56.9199 73.3906H26.026C23.8969 73.3906 22.1643 71.7712 22.1643 69.7812V69.75C23.243 70.514 24.5714 70.9844 26.026 70.9844H28.6005V68.5781H26.026C23.8969 68.5781 22.1643 66.9587 22.1643 64.9688V38.9921C27.1498 34.1531 29.8877 27.809 29.8877 21.0727V18.0469H35.0367V20.4531H37.6112V18.0469H45.3347V20.4531H47.9091V18.0469H53.0581V21.0727C53.0581 27.809 55.7961 34.1531 60.7816 38.9921V64.9688C60.7816 66.9587 59.049 68.5781 56.9199 68.5781H54.3454V70.9844H56.9199Z" fill="black"/>
<path d="M51.7701 68.5781H46.6211V70.9844H51.7701V68.5781Z" fill="black"/>
<path d="M44.0474 68.5781H38.8984V70.9844H44.0474V68.5781Z" fill="black"/>
<path d="M36.3248 68.5781H31.1758V70.9844H36.3248V68.5781Z" fill="black"/>
</svg>
