<svg width="84" height="85" viewBox="0 0 84 85" fill="none" xmlns="http://www.w3.org/2000/svg">
<g clip-path="url(#clip0)">
<path d="M7.18555 31.5444H76.4661V83.4621H7.18555V31.5444Z" fill="#FFE992"/>
<path d="M1.29102 18.5029H82.3607V35.979H1.29102V18.5029Z" fill="#FFE992"/>
<path d="M41.8255 24.2989C41.2983 24.9179 40.782 25.5453 40.2778 26.1804C38.3995 28.5416 36.6802 31.0162 35.1261 33.585C30.1908 41.7337 26.9136 50.838 25.5312 60.3659C23.4538 57.5818 21.536 54.5694 19.8116 51.3487C16.7769 53.3488 13.8111 55.6358 10.9551 58.2091C12.4217 48.1022 15.653 38.388 20.4517 29.5036C23.0148 24.7561 26.0271 20.2452 29.4575 16.0386C29.8538 15.5499 30.2566 15.0683 30.6644 14.5879C32.3978 16.096 34.1292 17.6035 35.8626 19.111C37.6337 20.652 39.4053 22.1924 41.1764 23.7354C41.3934 23.9211 41.6085 24.1106 41.8255 24.2989Z" fill="#C799F4"/>
<path d="M72.6978 58.2091C69.8418 55.6358 66.8761 53.3488 63.8413 51.3487C62.1169 54.5694 60.1991 57.5818 58.1217 60.3659C56.7393 50.838 53.4621 41.7337 48.5268 33.585C46.9727 31.0162 45.2515 28.5416 43.3751 26.1804C42.869 25.5453 42.3527 24.9179 41.8262 24.2989C42.0425 24.1106 42.2582 23.923 42.4746 23.7354C44.2476 22.1924 46.0192 20.6501 47.7903 19.111C49.5237 17.6016 51.2571 16.096 52.9885 14.5879C53.3963 15.0663 53.7991 15.5499 54.1954 16.0367C57.6258 20.2433 60.6382 24.7541 63.2031 29.5036C67.9999 38.388 71.2312 48.1022 72.6978 58.2091Z" fill="#C799F4"/>
<path d="M65.248 2.17854L41.8262 13.4164L46.3249 25.6408L71.3238 18.6888C74.594 17.7796 76.3899 14.2346 75.2079 11.0236L73.1446 5.41855C71.9626 2.20691 68.3108 0.709084 65.248 2.17854Z" fill="#C799F4"/>
<path d="M18.4052 2.17854L41.8264 13.4164L37.3276 25.6408L12.3288 18.6888C9.0592 17.7796 7.26263 14.2346 8.4446 11.0236L10.5079 5.41855C11.6899 2.20691 15.3418 0.709084 18.4052 2.17854Z" fill="#C799F4"/>
<path d="M45.4986 9.21509H38.154C36.1437 9.21509 34.5137 10.8612 34.5137 12.8923V23.6736C34.5137 25.7047 36.1437 27.3514 38.154 27.3514H45.4986C47.5096 27.3514 49.139 25.7047 49.139 23.6736V12.8923C49.139 10.8612 47.509 9.21509 45.4986 9.21509Z" fill="#C799F4"/>
<path d="M35.3711 35.979H48.2796V83.4618H35.3711V35.979Z" fill="#C799F4"/>
<path d="M82.3608 17.1987H75.5498C75.7476 16.9183 75.927 16.6236 76.084 16.3147C76.9851 14.5364 77.107 12.4422 76.4184 10.5685L74.3544 4.96404C73.6664 3.09224 72.2209 1.58733 70.3898 0.835516C68.5569 0.0830581 66.4808 0.143023 64.6931 1.00058L48.3587 8.83788C47.5514 8.25499 46.564 7.91068 45.4982 7.91068H38.1537C37.0879 7.91068 36.0999 8.25564 35.2926 8.83852L18.9588 0.999935C17.1711 0.143023 15.095 0.0830581 13.2621 0.835516C11.431 1.58733 9.98549 3.09224 9.29749 4.96339L7.23351 10.5691C6.54488 12.4422 6.66678 14.5364 7.56857 16.3147C7.72493 16.6236 7.90491 16.9189 8.10276 17.1987H1.29111C0.578221 17.1987 0 17.7823 0 18.5031V27.893C0 28.6133 0.578221 29.1974 1.29111 29.1974C2.00399 29.1974 2.58221 28.6133 2.58221 27.893V19.8069H11.5497C11.6933 19.8578 11.8389 19.9049 11.9863 19.9461L22.8251 22.9605C20.4164 26.6892 18.2918 30.6114 16.4729 34.6755H2.58221V33.11C2.58221 32.3897 2.00399 31.8062 1.29111 31.8062C0.578221 31.8062 0 32.3897 0 33.11V35.9799C0 36.7001 0.578221 37.2843 1.29111 37.2843H5.89518V83.4614C5.89518 84.1823 6.4734 84.7658 7.18628 84.7658H76.4656C77.1785 84.7658 77.7567 84.1823 77.7567 83.4614V75.8879C77.7567 75.1676 77.1785 74.5835 76.4656 74.5835C75.7521 74.5835 75.1745 75.1676 75.1745 75.8879V82.1577H49.5713V38.0864C53.2283 45.0842 55.7039 52.6932 56.8431 60.555C56.9184 61.0753 57.2962 61.499 57.8011 61.6292C57.907 61.6569 58.0142 61.6698 58.1208 61.6698C58.5197 61.6698 58.9039 61.4828 59.1515 61.1508C61.0075 58.6632 62.7332 56.0003 64.2911 53.22C66.9001 55.0151 69.4331 57.0164 71.8367 59.1829C72.2419 59.5479 72.8304 59.6181 73.3084 59.3576C73.7864 59.0978 74.0525 58.5633 73.9734 58.0204C72.9427 50.9168 71.021 43.9313 68.2971 37.2843H75.1739V70.6703C75.1739 71.3912 75.7521 71.9747 76.465 71.9747C77.1785 71.9747 77.7561 71.3912 77.7561 70.6703V37.2843H82.3608C83.0737 37.2843 83.6513 36.7001 83.6513 35.9799V18.5031C83.6519 17.7823 83.0743 17.1987 82.3608 17.1987ZM65.8004 3.3566C66.9524 2.80467 68.2365 2.76728 69.4178 3.25215C70.5972 3.73638 71.4907 4.6668 71.9343 5.87318L73.9977 11.477C74.4418 12.684 74.3659 13.98 73.7851 15.1258C73.205 16.2709 72.2087 17.0898 70.9808 17.4309L50.4297 23.1468V16.8783C55.0491 14.0206 66.565 8.12668 69.4312 12.2139C69.8429 12.8013 70.6483 12.9413 71.2304 12.5247C71.8124 12.1082 71.9503 11.2938 71.538 10.7064C69.3259 7.55154 64.6644 7.39808 57.6817 10.2512C54.8053 11.426 52.1497 12.86 50.4297 13.8549V12.8922C50.4297 12.194 50.2861 11.5285 50.0283 10.9244L65.8004 3.3566ZM38.1537 10.5188H45.4982C46.7938 10.5188 47.8475 11.584 47.8475 12.8922V23.6736C47.8475 24.9825 46.7938 26.047 45.4982 26.047H38.1537C36.8581 26.047 35.8044 24.9825 35.8044 23.6736V12.8922C35.8044 11.5833 36.8581 10.5188 38.1537 10.5188ZM35.9837 34.6748C37.2187 32.6019 38.5628 30.5927 40.009 28.6558H43.6417C45.0885 30.5927 46.4326 32.6019 47.6669 34.6748H35.9837ZM9.86678 15.1258C9.286 13.98 9.21006 12.684 9.65361 11.4776L11.7182 5.87253C12.1612 4.6668 13.0547 3.73638 14.2341 3.25215C15.4148 2.76728 16.6995 2.80467 17.8508 3.3566L33.6236 10.9257C33.3658 11.5292 33.2222 12.194 33.2222 12.8929V13.9297C31.508 12.9329 28.7924 11.4563 25.8425 10.2512C18.8605 7.39808 14.1983 7.55154 11.9863 10.7064C11.574 11.2938 11.7119 12.1082 12.2939 12.5247C12.876 12.9413 13.6814 12.802 14.093 12.2139C16.986 8.088 28.6915 14.1322 33.2222 16.9576V23.1468L12.6717 17.4315C11.4432 17.0898 10.4469 16.2709 9.86678 15.1258ZM33.8017 26.0135C34.4444 27.2283 35.5702 28.1445 36.9187 28.4972C30.8806 37.0083 26.7239 46.7877 24.7742 57.0667C23.4026 55.0421 22.1205 52.9202 20.9468 50.7286C20.7751 50.4075 20.479 50.174 20.1286 50.0844C19.7789 49.9948 19.4081 50.0573 19.1062 50.2566C16.9561 51.6732 14.8506 53.2271 12.8172 54.8958C14.9112 43.7914 19.2377 33.0842 25.4417 23.6884L33.8017 26.0135ZM8.47739 37.2843H15.3548C12.6309 43.9313 10.7092 50.9162 9.67787 58.0204C9.59937 58.5633 9.86486 59.0978 10.3429 59.3576C10.8215 59.6175 11.4093 59.5479 11.8146 59.1829C14.2181 57.0164 16.7512 55.0151 19.3608 53.22C20.9187 56.0003 22.6438 58.6626 24.5004 61.1508C24.748 61.4828 25.1322 61.6705 25.5311 61.6705C25.6377 61.6705 25.7449 61.6569 25.8508 61.6292C26.3557 61.499 26.7328 61.0753 26.8082 60.555C27.948 52.6932 30.4236 45.0835 34.08 38.0857V82.1577H8.47739V37.2843ZM36.6622 82.1577V37.2843H46.9897V82.1577H36.6622ZM64.5457 50.2566C64.2438 50.0573 63.8724 49.9954 63.5233 50.0851C63.1735 50.1747 62.8768 50.4081 62.7051 50.7286C61.5314 52.9202 60.2493 55.0428 58.8777 57.0667C56.928 46.787 52.7713 37.0083 46.7325 28.4978C48.0811 28.1458 49.2075 27.2289 49.8502 26.0135L58.2121 23.6878C64.4149 33.0855 68.7413 43.7927 70.8353 54.8958C68.8013 53.2271 66.6958 51.6732 64.5457 50.2566ZM81.0697 34.6755H67.1796C65.3607 30.6114 63.2361 26.6892 60.8281 22.9605L71.6656 19.9461C71.813 19.9049 71.9586 19.8578 72.1022 19.8069H81.0697V34.6755Z" fill="black"/>
</g>
<defs>
<clipPath id="clip0">
<rect width="83.6516" height="84.5122" fill="white" transform="translate(0 0.14624)"/>
</clipPath>
</defs>
</svg>
