<svg width="86" height="86" viewBox="0 0 86 86" fill="none" xmlns="http://www.w3.org/2000/svg">
<g clip-path="url(#clip0)">
<path d="M86.0003 8.3226H70.7422V24.9678H86.0003L81.839 16.6452L86.0003 8.3226Z" fill="#C799F4"/>
<path d="M22.1934 47.1613H66.5805V65.1935H22.1934V47.1613Z" fill="#C799F4"/>
<path d="M5.54883 54.0968H8.32302V62.4194H5.54883V54.0968Z" fill="black"/>
<path d="M5.54883 40.2258H8.32302V48.5484H5.54883V40.2258Z" fill="black"/>
<path d="M5.54883 26.3549H8.32302V34.6774H5.54883V26.3549Z" fill="black"/>
<path d="M5.54883 12.4839H8.32302V20.8065H5.54883V12.4839Z" fill="black"/>
<path d="M12.4843 0C8.66031 0 5.54883 3.11149 5.54883 6.93548H8.32302C8.32302 4.64149 10.1903 2.77419 12.4843 2.77419H16.6456V72.129H12.4843C10.9171 72.129 9.48526 72.6715 8.32302 73.552V67.9677H5.54883V79.0645C5.54883 82.8885 8.66031 86 12.4843 86H72.1295V83.2258H69.3553C67.0613 83.2258 65.194 81.3585 65.194 79.0645C65.194 76.7705 67.0613 74.9032 69.3553 74.9032H72.1295V0H12.4843ZM63.8096 83.2258H12.4843C10.1903 83.2258 8.32302 81.3585 8.32302 79.0645C8.32302 76.7705 10.1903 74.9032 12.4843 74.9032H63.8096C62.9372 76.0628 62.4198 77.504 62.4198 79.0645C62.4198 80.625 62.9372 82.0663 63.8096 83.2258ZM19.4198 72.129V2.77419H69.3553V72.129H19.4198Z" fill="black"/>
<path d="M22.1934 47.1613H24.9676V49.9355H22.1934V47.1613Z" fill="black"/>
<path d="M27.7422 47.1613H66.5809V49.9355H27.7422V47.1613Z" fill="black"/>
<path d="M22.1934 52.7097H66.5805V55.4838H22.1934V52.7097Z" fill="black"/>
<path d="M22.1934 58.2581H55.4837V61.0322H22.1934V58.2581Z" fill="black"/>
<path d="M58.2578 58.2581H66.5804V61.0322H58.2578V58.2581Z" fill="black"/>
<path d="M22.1934 63.8065H66.5805V66.5806H22.1934V63.8065Z" fill="black"/>
<path d="M11.0957 77.6774H13.8699V80.4516H11.0957V77.6774Z" fill="black"/>
<path d="M16.6445 77.6774H54.0962V80.4516H16.6445V77.6774Z" fill="black"/>
<path d="M56.8711 77.6774H59.6453V80.4516H56.8711V77.6774Z" fill="black"/>
<path d="M11.0968 69.3549H2.77419C1.24419 69.3549 0 68.1107 0 66.5807V63.8065C0 62.2765 1.24419 61.0323 2.77419 61.0323H11.0968C12.6268 61.0323 13.871 62.2765 13.871 63.8065V66.5807C13.871 68.1107 12.6268 69.3549 11.0968 69.3549Z" fill="#C799F4"/>
<path d="M11.0968 55.4839H2.77419C1.24419 55.4839 0 54.2397 0 52.7097V49.9355C0 48.4055 1.24419 47.1613 2.77419 47.1613H11.0968C12.6268 47.1613 13.871 48.4055 13.871 49.9355V52.7097C13.871 54.2397 12.6268 55.4839 11.0968 55.4839Z" fill="#C799F4"/>
<path d="M11.0968 41.6129H2.77419C1.24419 41.6129 0 40.3687 0 38.8387V36.0645C0 34.5345 1.24419 33.2903 2.77419 33.2903H11.0968C12.6268 33.2903 13.871 34.5345 13.871 36.0645V38.8387C13.871 40.3687 12.6268 41.6129 11.0968 41.6129Z" fill="#C799F4"/>
<path d="M11.0968 27.742H2.77419C1.24419 27.742 0 26.4978 0 24.9678V22.1936C0 20.6636 1.24419 19.4194 2.77419 19.4194H11.0968C12.6268 19.4194 13.871 20.6636 13.871 22.1936V24.9678C13.871 26.4978 12.6268 27.742 11.0968 27.742Z" fill="#C799F4"/>
<path d="M11.0968 13.871H2.77419C1.24419 13.871 0 12.6268 0 11.0968V8.32259C0 6.79259 1.24419 5.5484 2.77419 5.5484H11.0968C12.6268 5.5484 13.871 6.79259 13.871 8.32259V11.0968C13.871 12.6268 12.6268 13.871 11.0968 13.871Z" fill="#C799F4"/>
<path d="M44.6215 7.04919C40.0527 7.04919 35.6881 9.04523 32.9481 12.3892L32.2623 13.2241C28.9662 14.4342 26.7871 17.3541 26.7871 20.6359V31.0164H28.4084C28.4084 28.5592 30.5858 26.5676 33.2724 26.5676V23.6017C35.3493 25.5014 38.1639 26.5676 41.1 26.5676H41.3789V25.6452C42.8073 26.2399 44.3654 26.5676 45.964 26.5676H46.2428V25.6452C47.6712 26.2399 49.2293 26.5676 50.8279 26.5676H52.7281C55.4146 26.5676 57.592 28.5592 57.592 31.0164H59.2133V20.3956C59.2133 13.0358 52.6681 7.04919 44.6215 7.04919Z" fill="#C799F4"/>
<path d="M54.3494 25.9979V22.5574H51.1068V25.7858H50.8279C48.3035 25.7858 45.9299 24.8809 44.1465 23.2368L42.175 25.0526C41.1114 24.6226 40.1289 24.0163 39.2826 23.2368L37.311 25.0526C36.4388 24.7002 35.6265 24.2224 34.8937 23.634V22.5574H31.651V25.9979C28.8608 26.6654 26.7871 28.9829 26.7871 31.7589C26.7871 34.8843 29.4136 37.4258 32.7357 37.6826C34.5516 41.2351 38.4638 43.7049 43.0002 43.7049C47.5367 43.7049 51.4489 41.2336 53.2647 37.6826C56.5868 37.4258 59.2133 34.8843 59.2133 31.7589C59.2133 28.9829 57.1397 26.6654 54.3494 25.9979ZM30.0297 31.7589C30.0297 30.6583 30.6864 29.7056 31.651 29.1875V33.2521C31.651 33.6269 31.6754 33.9973 31.7175 34.3631C30.7172 33.8539 30.0297 32.8833 30.0297 31.7589ZM43.0002 40.7184C38.5303 40.7184 34.8937 37.369 34.8937 33.2521V27.2746C36.7679 28.2467 38.8886 28.7723 41.1 28.7723H41.3789V27.9794C42.8235 28.4946 44.3686 28.7723 45.964 28.7723H46.2428V27.9794C47.6874 28.4946 49.2325 28.7723 50.8279 28.7723H51.1068V33.2521C51.1068 37.369 47.4702 40.7184 43.0002 40.7184ZM54.2829 34.3631C54.3251 33.9973 54.3494 33.6269 54.3494 33.2521V29.1875C55.3141 29.7056 55.9707 30.6583 55.9707 31.7589C55.9707 32.8833 55.2833 33.8539 54.2829 34.3631Z" fill="black"/>
</g>
<defs>
<clipPath id="clip0">
<rect width="86" height="86" fill="white"/>
</clipPath>
</defs>
</svg>
