<svg width="58" height="73" viewBox="0 0 58 73" fill="none" xmlns="http://www.w3.org/2000/svg">
<path d="M7.55822 64.8278C8.95194 65.2341 10.4529 65.3501 11.9002 65.0599C15.8669 64.1894 18.8152 60.7071 19.244 56.6445C19.244 56.5865 19.244 56.5865 19.2976 56.5865C19.8872 52.0596 27.1238 39.4074 28.9464 37.3181C29.0536 37.202 58 61.1134 58 61.1134L35.1645 32.3268L56.4991 0C56.4991 0 29.4824 28.6124 28.1423 29.1348C22.4067 26.5811 19.2976 17.4112 18.976 11.0851C18.976 11.0851 18.9224 11.0851 18.9224 11.0271C18.7079 6.21 14.5804 2.3215 9.48798 2.3215C4.23475 2.3215 -3.57628e-07 6.38412 -3.57628e-07 11.3753C-3.57628e-07 14.4513 1.92976 17.2952 3.96672 19.9068C6.43253 20.5452 7.50462 20.4292 9.48798 20.4292C10.8281 20.4292 12.061 20.197 13.1867 19.6747C16.0277 18.9202 25.2477 32.501 26.1054 33.8939C22.1386 40.8583 19.8872 49.564 14.6876 47.4166C14.6876 47.4166 14.6876 47.4166 14.6876 47.4746C12.8115 46.4299 10.6673 46.0237 8.5231 46.488C4.23475 47.4166 1.07209 51.3631 1.07209 55.89C1.07209 56.4704 1.12569 57.1088 1.2329 57.6892C1.60813 59.7785 2.73382 61.6357 4.23475 62.9706C4.07393 63.8992 3.6451 65.118 2.84103 66.0466C-0.321629 69.2386 1.98336 72.2566 2.84103 72.953C3.6451 73.6495 4.34196 66.3948 7.55822 64.8278ZM2.84103 11.4334C2.84103 8.12524 5.78928 5.45552 9.43438 5.45552C13.0795 5.45552 16.0813 8.12524 16.0813 11.4334C16.0813 12.5361 15.7597 13.5227 15.1701 14.3933C15.0628 14.5674 14.902 14.7415 14.7948 14.9156C13.5619 16.3666 11.6322 17.3532 9.48798 17.3532C5.84288 17.4112 2.84103 14.7415 2.84103 11.4334ZM29.3752 32.3268C29.3752 31.2241 30.1793 30.3536 31.1978 30.3536C32.2163 30.3536 33.0203 31.2241 33.0203 32.3268C33.0203 33.4296 32.2163 34.3001 31.1978 34.3001C30.1793 34.3001 29.3752 33.4296 29.3752 32.3268ZM6.59334 61.1134C5.25323 60.1848 4.34196 58.7919 4.02033 57.1669C3.91312 56.7606 3.91312 56.4124 3.91312 56.0061C3.91312 52.9301 6.0573 50.2604 9.05915 49.622C10.7209 49.2738 12.3826 49.622 13.7763 50.5506C15.1165 51.4792 16.0277 52.8721 16.3494 54.4971C16.403 54.9034 16.4566 55.2516 16.4566 55.6579C16.4566 58.7339 14.3124 61.4036 11.3105 62.042C9.7024 62.3902 7.98706 62.042 6.59334 61.1134Z" fill="black"/>
</svg>
