<svg width="90" height="90" viewBox="0 0 90 90" fill="none" xmlns="http://www.w3.org/2000/svg">
<path d="M82.5307 45.6147L78.9237 43.8119C76.7032 42.7009 74.8526 40.9881 73.5771 38.8605C72.3621 36.8355 71.7195 34.5152 71.7195 32.1527V27.7188C71.7195 12.9855 59.734 1 45.0007 1C30.2674 1 18.282 12.9855 18.282 27.7188V32.1513C18.282 34.5138 17.6393 36.8327 16.4243 38.8591C15.1488 40.9881 13.2982 42.6995 11.0777 43.8105L7.4707 45.6133L9.50414 47.6467C12.5276 50.6702 16.4201 52.5109 20.6191 52.9356C19.6207 55.5737 17.8826 57.8983 15.6101 59.6027L13.0887 61.4969L16.1655 63.6934C20.5671 66.8378 25.4032 69.3592 30.5304 71.2408L32.1349 70.1369C34.9066 68.2328 36.5632 65.0842 36.5632 61.7205C36.5632 60.6222 36.386 59.5323 36.0387 58.4903L33.7507 51.625H33.8646C30.3532 48.5327 28.1257 44.0158 28.1257 38.9688V24.9062C28.1257 24.9062 33.7507 27.7188 45.0007 27.7188C56.2507 27.7188 61.8757 24.9062 61.8757 24.9062V38.9688C61.8757 44.0158 59.6482 48.5327 56.1368 51.625H56.2507L53.9627 58.4903C53.6154 59.5309 53.4382 60.6222 53.4382 61.7205C53.4382 65.0842 55.0948 68.2328 57.8665 70.1383L59.471 71.2422C64.5982 69.3592 69.4343 66.8392 73.8359 63.6948L76.9128 61.4983L74.3899 59.6041C72.1202 57.8997 70.3807 55.5752 69.3823 52.937C73.5813 52.5123 77.4738 50.673 80.4973 47.6481L82.5307 45.6147Z" fill="#C799F4"/>
<path d="M57.6562 39.375V36.5625H54.8438V39.375C54.8438 44.8017 50.4281 49.2188 45 49.2188V52.0312C51.9778 52.0312 57.6562 46.3542 57.6562 39.375Z" fill="black"/>
<path d="M57.6562 30.9375H54.8438V33.75H57.6562V30.9375Z" fill="black"/>
<path d="M73.2572 79.4208L58.6617 69.3858C56.2711 67.7419 54.8438 65.0278 54.8438 62.1267C54.8438 61.1775 54.9956 60.2409 55.2952 59.3423L57.5241 52.657C61.0594 49.32 63.2812 44.6076 63.2812 39.375L63.277 23.0555L61.2506 24.0539C61.1958 24.0792 55.7128 26.7187 45 26.7187C34.2872 26.7187 28.8042 24.0792 28.7536 24.0539L26.7188 23.0372V39.375C26.7188 44.6076 28.9406 49.32 32.4759 52.6556L34.7048 59.3409C35.0044 60.2409 35.1562 61.1775 35.1562 62.1253C35.1562 65.0264 33.7289 67.7405 31.3383 69.3844L16.7428 79.4194C14.1834 81.18 12.6562 84.0825 12.6562 87.1875V88.5937H77.3438V87.1875C77.3438 84.0825 75.8166 81.18 73.2572 79.4208ZM29.5312 39.375V27.3698C32.1539 28.2473 37.3022 29.5312 45 29.5312C52.6978 29.5312 57.8461 28.2473 60.4688 27.3698V39.375C60.4688 47.9039 53.5289 54.8437 45 54.8437C36.4711 54.8437 29.5312 47.9039 29.5312 39.375ZM15.6192 85.7812C15.9722 84.1542 16.9341 82.7015 18.3347 81.7383L32.9302 71.7033C36.0858 69.5334 37.9688 65.9531 37.9688 62.1267C37.9688 60.8751 37.7677 59.639 37.3725 58.4522L36.3853 55.492C38.9545 56.8701 41.8866 57.6562 45 57.6562C48.1134 57.6562 51.0455 56.8701 53.6147 55.4906L52.6275 58.4508C52.2323 59.639 52.0312 60.8751 52.0312 62.1267C52.0312 65.9545 53.9142 69.5348 57.0698 71.7047L71.6653 81.7397C73.0673 82.7029 74.0278 84.1556 74.3808 85.7826H15.6192V85.7812Z" fill="black"/>
</svg>
