<svg width="177" height="177" viewBox="0 0 177 177" fill="none" xmlns="http://www.w3.org/2000/svg">
<g clip-path="url(#clip0)">
<path d="M127.04 0C120.771 0 114.847 2.60647 110.571 7.06287C103.819 2.60932 95.7484 0 87.0726 0C63.4602 0 44.25 19.2102 44.25 42.8226V65.6613H47.1048C47.1048 59.355 52.2179 54.2419 58.5242 54.2419H58.6327C59.1894 46.2769 65.7584 39.9677 73.8661 39.9677C76.8951 39.9677 79.8555 40.8642 82.3735 42.5428L87.0726 45.6774L91.7716 42.5428C94.2925 40.8642 97.2529 39.9677 100.279 39.9677C108.387 39.9677 114.953 46.2769 115.512 54.2419H115.621C121.927 54.2419 127.04 59.355 127.04 65.6613H129.895V45.4804C141.143 44.0673 149.879 34.4636 149.879 22.8387C149.879 10.246 139.633 0 127.04 0Z" fill="#FFE992"/>
<path d="M101.347 162.726C101.347 154.844 94.9547 148.452 87.0725 148.452C79.1902 148.452 72.7983 154.844 72.7983 162.726H61.3789C61.3789 148.534 72.881 137.032 87.0725 137.032C101.264 137.032 112.766 148.534 112.766 162.726H101.347Z" fill="#FFE992"/>
<path d="M101.347 62.8064C102.924 62.8064 104.202 61.5282 104.202 59.9515C104.202 58.3748 102.924 57.0967 101.347 57.0967C99.7703 57.0967 98.4922 58.3748 98.4922 59.9515C98.4922 61.5282 99.7703 62.8064 101.347 62.8064Z" fill="black"/>
<path d="M72.7982 62.8064C74.3749 62.8064 75.653 61.5282 75.653 59.9515C75.653 58.3748 74.3749 57.0967 72.7982 57.0967C71.2215 57.0967 69.9434 58.3748 69.9434 59.9515C69.9434 61.5282 71.2215 62.8064 72.7982 62.8064Z" fill="black"/>
<path d="M98.4911 77.0806H92.7814C92.7814 80.2295 90.2206 82.7902 87.0717 82.7902C83.9228 82.7902 81.362 80.2295 81.362 77.0806H75.6523C75.6523 83.3783 80.7739 88.4999 87.0717 88.4999C93.3695 88.4999 98.4911 83.3783 98.4911 77.0806Z" fill="black"/>
<path d="M133.361 113.291L104.202 103.571V97.6554C110.511 93.5301 115.233 87.1981 117.303 79.7641C124.374 78.9219 129.895 72.9553 129.895 65.6612C129.895 58.6411 124.791 52.8201 118.105 51.6382C116.4 43.3592 109.058 37.1128 100.282 37.1128C96.6764 37.1128 93.1878 38.1691 90.1902 40.1675L87.0727 42.2458L83.9552 40.1675C80.9576 38.1691 77.469 37.1128 73.8634 37.1128C65.0876 37.1128 57.7421 43.3592 56.0406 51.6382C49.3546 52.8201 44.2501 58.6411 44.2501 65.6612C44.2501 72.9553 49.7714 78.9219 56.8428 79.7641C58.9097 87.201 63.6345 93.5301 69.9437 97.6554V103.571L40.7844 113.288C32.6109 116.015 27.1211 123.634 27.1211 132.25V177H147.024V132.25C147.024 123.634 141.534 116.015 133.361 113.291ZM124.186 65.6612C124.186 69.421 121.733 72.5899 118.356 73.7375C118.416 72.9525 118.476 72.1702 118.476 71.3709V57.622C121.79 58.8039 124.186 61.9442 124.186 65.6612ZM49.9598 65.6612C49.9598 61.9442 52.355 58.8039 55.6695 57.622V71.3709C55.6695 72.1702 55.7294 72.9525 55.7894 73.7375C52.4121 72.5899 49.9598 69.421 49.9598 65.6612ZM61.3792 71.3709V55.3067C61.3792 48.4237 66.9804 42.8225 73.8634 42.8225C76.3385 42.8225 78.7309 43.5476 80.7892 44.9179L87.0727 49.1088L93.3562 44.9208C95.4146 43.5476 97.8069 42.8225 100.282 42.8225C107.165 42.8225 112.766 48.4237 112.766 55.3067V71.3709C112.766 85.5366 101.238 97.0644 87.0727 97.0644C72.907 97.0644 61.3792 85.5366 61.3792 71.3709ZM87.0727 102.774C91.1037 102.774 94.9464 101.983 98.4921 100.593V105.224C98.0039 106.805 95.2804 114.193 87.0727 114.193C78.8479 114.193 76.1301 106.774 75.6534 105.224V100.593C79.1991 101.983 83.0417 102.774 87.0727 102.774ZM71.0685 109.215C73.2353 113.951 78.2341 119.903 87.0727 119.903C95.9113 119.903 100.91 113.951 103.077 109.215L120.334 114.967L115.313 135.051L118.964 138.702C122.333 142.071 124.186 146.547 124.186 151.306V159.871H107.057C100.165 159.871 94.3982 164.784 93.0707 171.29H81.0747C79.7472 164.784 73.9833 159.871 67.0888 159.871H49.9598V151.306C49.9598 146.547 51.8126 142.071 55.1784 138.705L58.8298 135.054L53.8081 114.97L71.0685 109.215ZM32.8308 132.25C32.8308 126.095 36.7533 120.654 42.5915 118.707L48.3782 116.777L52.5092 133.301L51.1417 134.668C46.6967 139.113 44.2501 145.02 44.2501 151.306V165.581H67.0888C70.8058 165.581 73.9462 167.976 75.1281 171.29H32.8308V132.25ZM141.315 171.29H99.0173C100.199 167.976 103.34 165.581 107.057 165.581H129.895V151.306C129.895 145.02 127.449 139.113 123.004 134.668L121.636 133.301L125.767 116.777L131.554 118.707C137.392 120.654 141.315 126.095 141.315 132.25V171.29Z" fill="black"/>
</g>
<defs>
<clipPath id="clip0">
<rect width="177" height="177" fill="white"/>
</clipPath>
</defs>
</svg>
