<svg width="219" height="490" viewBox="0 0 219 490" fill="none" xmlns="http://www.w3.org/2000/svg">
<path opacity="0.5" d="M138.844 47.625C151.594 57.75 157.969 70.6875 157.969 86.4375C157.969 103.219 153 115.875 143.062 124.406C133.125 132.937 118.453 137.297 99.0469 137.484H3V89.9531H97.9219C105.984 89.9531 111.891 88.3125 115.641 85.0312C119.484 81.75 121.406 76.1719 121.406 68.2969C121.406 58.5469 118.312 51.6562 112.125 47.625L3 47.625V0.234375L219 0.234375V47.625L138.844 47.625ZM3 249.562C6.09375 247.875 10.6406 246.375 16.6406 245.062C5.67187 236.344 0.1875 224.156 0.1875 208.5C0.1875 194.156 4.5 181.969 13.125 171.937C21.8437 161.906 32.7656 156.891 45.8906 156.891C62.3906 156.891 74.8594 162.984 83.2969 175.172C91.7344 187.359 95.9531 205.078 95.9531 228.328V242.953H103.969C117.937 242.953 124.922 236.906 124.922 224.812C124.922 213.562 119.391 207.937 108.328 207.937V160.547C123.047 160.547 135 166.781 144.187 179.25C153.375 191.812 157.969 207.797 157.969 227.203C157.969 246.609 153.234 261.938 143.766 273.188C134.297 284.438 121.312 290.203 104.812 290.484L37.4531 290.484C23.4844 290.672 12.7969 292.828 5.39062 296.953H3V249.562ZM33.9375 219.891C33.9375 225.797 35.2031 230.672 37.7344 234.516C40.2656 238.453 43.125 241.266 46.3125 242.953H70.6406V229.172C70.6406 212.672 63.2344 204.422 48.4219 204.422C44.1094 204.422 40.5937 205.875 37.875 208.781C35.25 211.687 33.9375 215.391 33.9375 219.891ZM3 366.844V319.312L155.156 319.312V366.844L3 366.844ZM194.391 316.5C201.141 316.5 206.672 318.938 210.984 323.812C215.297 328.688 217.453 335.016 217.453 342.797C217.453 350.578 215.297 356.906 210.984 361.781C206.672 366.656 201.141 369.094 194.391 369.094C187.641 369.094 182.109 366.656 177.797 361.781C173.484 356.906 171.328 350.578 171.328 342.797C171.328 335.016 173.484 328.688 177.797 323.812C182.109 318.938 187.641 316.5 194.391 316.5ZM112.266 488.203L113.391 472.594C113.391 457.688 108.703 448.125 99.3281 443.906L3 443.906V396.516L155.156 396.516V440.953L135.609 442.5C150.516 450.469 157.969 461.578 157.969 475.828C157.969 480.891 157.406 485.297 156.281 489.047L112.266 488.203Z" fill="#F4ECFC"/>
</svg>
