<svg width="219" height="690" viewBox="0 0 219 690" fill="none" xmlns="http://www.w3.org/2000/svg">
<path opacity="0.5" d="M159.609 616.031L63.8438 591.984L63.8438 542.062L216 591.703V640.078L63.8438 689.719V639.656L159.609 616.031ZM216 477.938V525.469H0L0 477.938H216ZM216 362.906C212.906 364.594 208.359 366.094 202.359 367.406C213.328 376.125 218.812 388.312 218.812 403.969C218.812 418.312 214.5 430.5 205.875 440.531C197.156 450.562 186.234 455.578 173.109 455.578C156.609 455.578 144.141 449.484 135.703 437.297C127.266 425.109 123.047 407.391 123.047 384.141V369.516H115.031C101.063 369.516 94.0781 375.562 94.0781 387.656C94.0781 398.906 99.6094 404.531 110.672 404.531V451.922C95.9531 451.922 84 445.688 74.8125 433.219C65.625 420.656 61.0313 404.672 61.0313 385.266C61.0313 365.859 65.7656 350.531 75.2344 339.281C84.7031 328.031 97.6875 322.266 114.188 321.984H181.547C195.516 321.797 206.203 319.641 213.609 315.516H216V362.906ZM185.063 392.578C185.063 386.672 183.797 381.797 181.266 377.953C178.734 374.016 175.875 371.203 172.688 369.516H148.359V383.297C148.359 399.797 155.766 408.047 170.578 408.047C174.891 408.047 178.406 406.594 181.125 403.688C183.75 400.781 185.063 397.078 185.063 392.578ZM138.797 301.594C114.703 301.594 95.7188 296.391 81.8438 285.984C67.9688 275.578 61.0313 261.047 61.0313 242.391C61.0313 228.797 66.375 217.359 77.0625 208.078H0L0 160.547H216V203.156L199.688 205.547C212.438 215.297 218.812 227.672 218.812 242.672C218.812 260.766 211.875 275.109 198 285.703C184.125 296.297 164.391 301.594 138.797 301.594ZM141.75 254.203C168.75 254.203 182.25 246.328 182.25 230.578C182.25 220.078 177.844 212.578 169.031 208.078H111.094C102.094 212.391 97.5938 219.797 97.5938 230.297C97.5938 244.922 109.406 252.844 133.031 254.062L141.75 254.203ZM216 47.9062C212.906 49.5938 208.359 51.0938 202.359 52.4062C213.328 61.125 218.813 73.3125 218.813 88.9688C218.813 103.312 214.5 115.5 205.875 125.531C197.156 135.562 186.234 140.578 173.109 140.578C156.609 140.578 144.141 134.484 135.703 122.297C127.266 110.109 123.047 92.3906 123.047 69.1406V54.5156H115.031C101.063 54.5156 94.0781 60.5625 94.0781 72.6562C94.0781 83.9062 99.6094 89.5312 110.672 89.5312V136.922C95.9531 136.922 84 130.688 74.8125 118.219C65.625 105.656 61.0313 89.6719 61.0313 70.2656C61.0313 50.8594 65.7656 35.5312 75.2344 24.2812C84.7031 13.0312 97.6875 7.26562 114.188 6.98438H181.547C195.516 6.79688 206.203 4.64062 213.609 0.515625H216V47.9062ZM185.063 77.5781C185.063 71.6719 183.797 66.7969 181.266 62.9531C178.734 59.0156 175.875 56.2031 172.688 54.5156H148.359V68.2969C148.359 84.7969 155.766 93.0469 170.578 93.0469C174.891 93.0469 178.406 91.5938 181.125 88.6875C183.75 85.7812 185.063 82.0781 185.063 77.5781Z" fill="#F4ECFC"/>
</svg>
